<svg xmlns="http://www.w3.org/2000/svg" xmlns:xlink="http://www.w3.org/1999/xlink" width="31.871" height="31.871" viewBox="0 0 31.871 31.871"><defs><clipPath id="a"><circle cx="15.936" cy="15.936" r="15.936" transform="translate(0)" fill="#2a2a2a" stroke="#95989a" stroke-width="1"/></clipPath></defs><g clip-path="url(#a)"><path d="M30.4,4.5a5.756,5.756,0,0,1,4.223,1.753,5.756,5.756,0,0,1,1.753,4.223V30.4A5.986,5.986,0,0,1,30.4,36.371H10.476a5.756,5.756,0,0,1-4.223-1.753A5.756,5.756,0,0,1,4.5,30.4V10.476A5.756,5.756,0,0,1,6.253,6.253,5.756,5.756,0,0,1,10.476,4.5Zm.664,21.912V17.365a5.846,5.846,0,0,1-1.328,1.141q-.705.456-2.749,1.764t-3.144,2.054a6.4,6.4,0,0,1-3.4,1.432,6.4,6.4,0,0,1-3.4-1.432Q16.078,21.66,14.1,20.4T11.14,18.485a6.531,6.531,0,0,1-.685-.56q-.436-.394-.643-.56v9.047A1.984,1.984,0,0,0,11.8,28.4H29.068a1.984,1.984,0,0,0,1.992-1.992Zm0-11.89a2.035,2.035,0,0,0-.571-1.452,1.879,1.879,0,0,0-1.421-.6H11.8A1.984,1.984,0,0,0,9.812,14.46a2.622,2.622,0,0,0,.633,1.587,6.073,6.073,0,0,0,1.4,1.338q.975.664,2.853,1.847t2.687,1.722l.353.239q.29.2.436.29t.436.27q.29.176.488.27t.446.2a3.074,3.074,0,0,0,.467.156,1.77,1.77,0,0,0,.851,0,3.074,3.074,0,0,0,.467-.156q.249-.1.446-.2t.488-.27q.29-.176.436-.27t.436-.29l.353-.239,5.54-3.61a6.016,6.016,0,0,0,1.38-1.3A2.518,2.518,0,0,0,31.06,14.522Z" transform="translate(-4.5 -4.5)" fill="#2a2a2a"/></g></svg>