<svg xmlns="http://www.w3.org/2000/svg" xmlns:xlink="http://www.w3.org/1999/xlink" width="31.871" height="31.871" viewBox="0 0 31.871 31.871"><defs><clipPath id="a"><circle cx="15.936" cy="15.936" r="15.936" transform="translate(0)" fill="#2a2a2a"/></clipPath></defs><g clip-path="url(#a)"><path d="M34.608,4.5a1.771,1.771,0,0,1,1.764,1.764V34.608a1.771,1.771,0,0,1-1.764,1.764H26.495V24.025h4.129l.622-4.814H26.495V16.141a2.66,2.66,0,0,1,.488-1.743,2.42,2.42,0,0,1,1.9-.581l2.531-.021V9.5a27.814,27.814,0,0,0-3.693-.187,6.164,6.164,0,0,0-4.513,1.66,6.274,6.274,0,0,0-1.691,4.689v3.548h-4.15v4.814h4.15V36.371H6.264A1.771,1.771,0,0,1,4.5,34.608V6.264A1.771,1.771,0,0,1,6.264,4.5Z" transform="translate(-4.5 -4.5)" fill="#2a2a2a"/></g></svg>