<svg xmlns="http://www.w3.org/2000/svg" xmlns:xlink="http://www.w3.org/1999/xlink" width="30" height="30" viewBox="0 0 30 30"><defs><clipPath id="a"><circle cx="15" cy="15" r="15" transform="translate(0 0)" fill="#fff" stroke="#95989a" stroke-width="1"/></clipPath></defs><g clip-path="url(#a)"><path d="M9.129,29.617h4.512V16.062H9.129Zm4.8-17.734a2.308,2.308,0,0,0-.7-1.68,2.5,2.5,0,0,0-1.816-.664,2.6,2.6,0,0,0-1.846.664,2.2,2.2,0,0,0-.713,1.68,2.235,2.235,0,0,0,.693,1.67,2.483,2.483,0,0,0,1.807.674h.02a2.57,2.57,0,0,0,1.855-.674A2.22,2.22,0,0,0,13.934,11.883ZM25.359,29.617h4.512V21.844a6.486,6.486,0,0,0-1.426-4.551,4.889,4.889,0,0,0-3.77-1.543,4.541,4.541,0,0,0-4.082,2.285h.039V16.062H16.121q.059,1.289,0,13.555h4.512V22.039a3.231,3.231,0,0,1,.137-1.094,3.015,3.015,0,0,1,.879-1.162,2.21,2.21,0,0,1,1.445-.479q2.266,0,2.266,3.066ZM34.5,10.125v18.75A5.635,5.635,0,0,1,28.875,34.5H10.125A5.418,5.418,0,0,1,6.15,32.85,5.418,5.418,0,0,1,4.5,28.875V10.125A5.418,5.418,0,0,1,6.15,6.15,5.418,5.418,0,0,1,10.125,4.5h18.75A5.418,5.418,0,0,1,32.85,6.15,5.418,5.418,0,0,1,34.5,10.125Z" transform="translate(-4.5 -4.5)"/></g></svg>