<svg xmlns="http://www.w3.org/2000/svg" xmlns:xlink="http://www.w3.org/1999/xlink" width="31.871" height="31.871" viewBox="0 0 31.871 31.871"><defs><clipPath id="a"><circle cx="15.936" cy="15.936" r="15.936" transform="translate(0)" fill="#2a2a2a" stroke="#95989a" stroke-width="1"/></clipPath></defs><g clip-path="url(#a)"><path d="M31.06,14.5a9.231,9.231,0,0,1-2.511.705,4.235,4.235,0,0,0,1.93-2.428,8.666,8.666,0,0,1-2.78,1.058,4.141,4.141,0,0,0-3.175-1.369,4.357,4.357,0,0,0-4.357,4.357,4,4,0,0,0,.1,1,12.47,12.47,0,0,1-9.005-4.565,4.316,4.316,0,0,0-.6,2.2,4.11,4.11,0,0,0,1.888,3.631,5.14,5.14,0,0,1-2.075-.539v.042a4.144,4.144,0,0,0,1.037,2.77,4.358,4.358,0,0,0,2.552,1.5,4.048,4.048,0,0,1-1.058.166,5.844,5.844,0,0,1-.809-.083A4.43,4.43,0,0,0,13.744,25.1a4.141,4.141,0,0,0,2.521.871,8.61,8.61,0,0,1-5.416,1.867,8.363,8.363,0,0,1-1.037-.062,12.224,12.224,0,0,0,6.681,1.95,12.7,12.7,0,0,0,4.357-.737,11.224,11.224,0,0,0,3.486-1.971,13.087,13.087,0,0,0,2.5-2.843A12.557,12.557,0,0,0,28.9,17.323a5.532,5.532,0,0,0-.021-.56A8.469,8.469,0,0,0,31.06,14.5Zm5.312-4.025V30.4A5.986,5.986,0,0,1,30.4,36.371H10.476a5.756,5.756,0,0,1-4.223-1.753A5.756,5.756,0,0,1,4.5,30.4V10.476A5.756,5.756,0,0,1,6.253,6.253,5.756,5.756,0,0,1,10.476,4.5H30.4a5.756,5.756,0,0,1,4.223,1.753A5.756,5.756,0,0,1,36.371,10.476Z" transform="translate(-4.5 -4.5)" fill="#2a2a2a"/></g></svg>